<svg xmlns="http://www.w3.org/2000/svg" xmlns:xlink="http://www.w3.org/1999/xlink" width="1920" height="1072" viewBox="0 0 1920 1072">
  <defs>
    <style>
      .cls-1, .cls-11, .cls-3 {
        fill: none;
      }

      .cls-2 {
        clip-path: url(#clip-Web_1920_2);
      }

      .cls-3 {
        stroke: #000;
        stroke-width: 3px;
      }

      .cls-4 {
        fill: url(#pattern);
      }

      .cls-5 {
        font-size: 225px;
        font-family: AeonikTRIAL-Bold, Aeonik TRIAL;
        font-weight: 700;
        letter-spacing: -0.05em;
      }

      .cls-6 {
        letter-spacing: -0.03em;
      }

      .cls-7 {
        letter-spacing: -0.016em;
      }

      .cls-8 {
        clip-path: url(#clip-path);
      }

      .cls-9 {
        fill: #fff;
      }

      .cls-10 {
        font-size: 60px;
        font-family: AeonikTRIAL-Light, Aeonik TRIAL;
        font-weight: 300;
      }

      .cls-12, .cls-13 {
        stroke: none;
      }

      .cls-13 {
        fill: rgba(0,0,0,0.87);
      }
    </style>
    <pattern id="pattern" preserveAspectRatio="none" width="100%" height="100%" viewBox="0 0 1222 1214">
      <image width="1222" height="1214" xlink:href="Web%201920%20-%202-image.png"/>
    </pattern>
    <clipPath id="clip-path">
      <rect id="Rectangle_9" data-name="Rectangle 9" class="cls-1" width="512.208" height="275.531"/>
    </clipPath>
    <clipPath id="clip-Web_1920_2">
      <rect width="1920" height="1072"/>
    </clipPath>
  </defs>
  <g id="Web_1920_2" data-name="Web 1920 – 2" class="cls-2">
    <rect class="cls-9" width="1920" height="1072"/>
    <path id="Path_3" data-name="Path 3" class="cls-3" d="M0,0" transform="translate(72.5 136.5)"/>
    <g id="Hero_Image" data-name="Hero Image" transform="translate(824.218 46.36)">
      <path id="Path_1" data-name="Path 1" class="cls-4" d="M665,190.741A10.742,10.742,0,0,1,675.742,180h911.685a10.74,10.74,0,0,1,10.741,10.741v927.8a10.74,10.74,0,0,1-10.741,10.741H675.742A10.742,10.742,0,0,1,665,1118.539Z" transform="translate(-665 -180)"/>
    </g>
    <g id="Landing_page" data-name="Landing page">
      <g id="Landing_page-2" data-name="Landing page">
        <text id="community_board_minutes" data-name="community board 
minutes" class="cls-5" transform="translate(94 265)"><tspan x="0" y="209">commun</tspan><tspan class="cls-6" y="209">i</tspan><tspan class="cls-7" y="209">ty</tspan><tspan y="209" xml:space="preserve"> bo</tspan><tspan class="cls-6" y="209">ar</tspan><tspan y="209">d </tspan><tspan x="0" y="465">min</tspan><tspan class="cls-6" y="465">ut</tspan><tspan y="465">es</tspan></text>
      </g>
    </g>
    <g id="Group_2" data-name="Group 2" transform="translate(103.5 18.091)">
      <g id="Group_1" data-name="Group 1" class="cls-8">
        <path id="Path_4" data-name="Path 4" class="cls-9" d="M493.527,184.673h-22.9l.757-51.45L433.6,184.673H385.716a7.753,7.753,0,0,1-7.607-6.256L364.9,111.281l-3.9,66.1a7.753,7.753,0,0,1-7.739,7.3H308.872a7.753,7.753,0,0,1-6.9-4.213l-18.03-35.131-2.481,33.5A7.753,7.753,0,0,1,273.541,186l-48.12-1.184a7.753,7.753,0,0,1-7.359-5.987l-15.076-64.526-28.234,65.675a7.753,7.753,0,0,1-7.123,4.691H105.31a7.752,7.752,0,0,1-6.261-3.181l-26.957-36.92-4.122,33.3a7.753,7.753,0,0,1-7.694,6.8H31.028A22.028,22.028,0,0,0,9,206.7v58.844a22.028,22.028,0,0,0,22.028,22.028h34.2a7.752,7.752,0,0,1,7.5,5.784l3.03,11.539,9.7-13.987a7.753,7.753,0,0,1,6.371-3.335h35.654a7.753,7.753,0,0,1,7.485,5.732l15.612,57.824,6.852-56.733a7.753,7.753,0,0,1,7.7-6.823h26.123A7.753,7.753,0,0,1,199,295.325v12.687l15.283-17.746a7.754,7.754,0,0,1,5.875-2.694H269.27a7.753,7.753,0,0,1,7.054,4.536L288.4,318.594V291.756a4.183,4.183,0,0,1,4.183-4.183h42.878a3.7,3.7,0,0,1,3.671,4.161l-4.7,37.453L353.7,289.342a3.134,3.134,0,0,1,2.821-1.77h72.237a7.752,7.752,0,0,1,5.284,2.08l34.314,31.968-5.818-24.5a7.753,7.753,0,0,1,7.543-9.543h23.449a22.028,22.028,0,0,0,22.028-22.028V206.7a22.028,22.028,0,0,0-22.028-22.028" transform="translate(-6.174 -76.334)"/>
        <path id="Path_5" data-name="Path 5" d="M141.671,350.673l-15.612-57.824a4.935,4.935,0,0,0-4.756-3.642H85.649a4.927,4.927,0,0,0-4.048,2.119l-9.7,13.987-5.057-.893-3.03-11.539a4.928,4.928,0,0,0-4.764-3.675h-34.2A24.882,24.882,0,0,1,0,264.353V205.508a24.882,24.882,0,0,1,24.854-24.854H54.1a4.933,4.933,0,0,0,4.889-4.321l4.121-33.3,5.088-1.319,26.957,36.919a4.942,4.942,0,0,0,3.979,2.021h62.32a4.921,4.921,0,0,0,4.525-2.98L194.216,112l5.349.473L214.641,177a4.927,4.927,0,0,0,4.676,3.8l48.119,1.184a4.929,4.929,0,0,0,5.034-4.561l2.481-33.5,5.333-1.082,18.031,35.131a4.906,4.906,0,0,0,4.383,2.677h44.394a4.932,4.932,0,0,0,4.918-4.637l3.9-66.1,5.6-.379,13.207,67.136a4.936,4.936,0,0,0,4.833,3.975H426l36.929-50.3,5.1,1.714-.714,48.582h20.036a24.882,24.882,0,0,1,24.854,24.854v58.844a24.882,24.882,0,0,1-24.854,24.854H463.9a4.926,4.926,0,0,0-4.793,6.064l5.818,24.5-4.677,2.721-34.314-31.968a4.911,4.911,0,0,0-3.358-1.322H350.344a.309.309,0,0,0-.277.174L330.8,329.225l-5.349-1.582,4.7-37.453a.873.873,0,0,0-.867-.982H286.412a1.358,1.358,0,0,0-1.356,1.356V317.4l-5.4,1.173-12.079-26.486a4.939,4.939,0,0,0-4.483-2.882H213.981a4.922,4.922,0,0,0-3.733,1.712l-15.283,17.746L190,306.82V294.133a4.932,4.932,0,0,0-4.926-4.926H158.948a4.93,4.93,0,0,0-4.891,4.336l-6.851,56.732ZM85.649,283.554H121.3a10.6,10.6,0,0,1,10.213,7.822l11.821,43.783,5.108-42.294a10.588,10.588,0,0,1,10.5-9.311h26.123a10.591,10.591,0,0,1,10.579,10.579v5.074l10.315-11.978a10.569,10.569,0,0,1,8.016-3.676H263.1a10.6,10.6,0,0,1,9.626,6.19l6.682,14.65v-13.83a7.017,7.017,0,0,1,7.009-7.009H329.29a6.527,6.527,0,0,1,6.476,7.339l-2.559,20.371,11.771-24.344a5.993,5.993,0,0,1,5.366-3.366H422.58a10.545,10.545,0,0,1,7.211,2.839l27.48,25.6-3.66-15.417A10.579,10.579,0,0,1,463.9,283.554h23.449a19.223,19.223,0,0,0,19.2-19.2V205.508a19.223,19.223,0,0,0-19.2-19.2H464.448l-2.826-2.868.627-42.606-32.541,44.321-2.278,1.154H379.542a10.6,10.6,0,0,1-10.38-8.537l-8.919-45.341-2.589,43.921a10.59,10.59,0,0,1-10.56,9.956H302.7a10.536,10.536,0,0,1-9.412-5.749l-13.44-26.187-1.739,23.472a10.571,10.571,0,0,1-10.545,9.8c-.089,0-.177,0-.266,0l-48.12-1.184a10.58,10.58,0,0,1-10.041-8.169l-13.121-56.159-24.84,57.78a10.568,10.568,0,0,1-9.719,6.4H99.137a10.613,10.613,0,0,1-8.544-4.34L67.846,150.813,64.6,177.027a10.594,10.594,0,0,1-10.5,9.28H24.854a19.223,19.223,0,0,0-19.2,19.2v58.844a19.223,19.223,0,0,0,19.2,19.2h34.2a10.586,10.586,0,0,1,10.232,7.892l1.471,5.6,6.2-8.943a10.582,10.582,0,0,1,8.694-4.551" transform="translate(0 -75.142)"/>
        <path id="Path_6" data-name="Path 6" d="M179.108,467.319h4.36l6.438,21.038,6.793-21.038h3.853l6.438,21.038,6.742-21.038h4.208l-8.618,25.854H204.76l-6.236-19.213-6.489,19.213h-4.562Z" transform="translate(-122.86 -320.56)"/>
        <path id="Path_7" data-name="Path 7" d="M329.8,457.737v14.4H325.64V457.99c0-5.374-2.586-8.213-7.047-8.213-4.816,0-7.807,3.6-7.807,9.429v12.927H306.63V436.648h4.157v13.891a9.5,9.5,0,0,1,8.517-4.563c5.779,0,10.493,3.194,10.493,11.761" transform="translate(-210.334 -299.521)"/>
        <path id="Path_8" data-name="Path 8" d="M387.018,479.581c0-7.858,5.272-13.231,12.826-13.231s12.826,5.373,12.826,13.231-5.272,13.231-12.826,13.231-12.826-5.374-12.826-13.231m21.393,0c0-5.526-3.448-9.531-8.567-9.531s-8.568,4.005-8.568,9.531,3.447,9.531,8.568,9.531,8.567-4,8.567-9.531" transform="translate(-265.477 -319.895)"/>
        <path id="Path_9" data-name="Path 9" d="M479.2,483.285c.254,2.282,2.231,3.853,5.728,3.853,2.991,0,4.816-.964,4.816-2.788,0-2.129-1.774-2.281-5.982-2.839-6.083-.71-10.8-2.079-10.8-7.452,0-5.171,4.512-8.567,11.2-8.517,7,0,11.812,3.092,12.167,8.415h-6.844c-.2-2.079-2.18-3.346-5.069-3.346-2.788,0-4.613,1.014-4.613,2.687,0,1.977,2.231,2.18,5.982,2.636,5.982.608,10.95,1.977,10.95,7.857,0,5.171-4.867,8.466-11.863,8.466-7.249,0-12.166-3.4-12.471-8.973Z" transform="translate(-324.05 -319.34)"/>
        <path id="Path_10" data-name="Path 10" d="M582.043,486.032v6.032h-3.65c-3.7,0-4.866-1.774-4.816-4.258a9.3,9.3,0,0,1-8.517,4.563c-5.627,0-9.682-2.687-9.682-7.655,0-5.526,4.157-8.669,11.964-8.669h5.171v-1.267c0-2.332-1.673-3.853-4.664-3.853-2.788,0-4.664,1.268-4.968,3.194h-6.895c.507-5.069,5.171-8.415,12.065-8.415,7.3,0,11.507,3.245,11.507,9.48v9.226c0,1.369.558,1.622,1.673,1.622Zm-9.531-5.222h-5.222c-2.991,0-4.714,1.217-4.714,3.4,0,1.825,1.47,2.991,3.853,2.991,3.751,0,6.032-2.332,6.083-5.881Z" transform="translate(-380.964 -319.452)"/>
        <path id="Path_11" data-name="Path 11" d="M644.157,436.185a4.16,4.16,0,1,1,4.157,4,4.028,4.028,0,0,1-4.157-4m.558,6.793h7.2v26.057h-7.2Z" transform="translate(-441.863 -296.421)"/>
        <path id="Path_12" data-name="Path 12" d="M694.75,436.648H701.9v35.486h-6.235l-.71-3.6a9.646,9.646,0,0,1-8.009,3.9c-7,0-12.116-5.12-12.116-13.383,0-8.06,5.12-13.282,12.065-13.282a9.53,9.53,0,0,1,7.858,3.548Zm.1,22.508c0-4.461-2.433-7.553-6.337-7.553s-6.388,3.042-6.388,7.5,2.484,7.5,6.388,7.5,6.337-3.042,6.337-7.452" transform="translate(-462.901 -299.521)"/>
        <path id="Path_13" data-name="Path 13" d="M763.769,467.319h4.36l6.438,21.038,6.793-21.038h3.853l6.438,21.038,6.742-21.038H802.6l-8.618,25.854h-4.562l-6.236-19.213L776.7,493.173h-4.562Z" transform="translate(-523.911 -320.56)"/>
        <path id="Path_14" data-name="Path 14" d="M914.459,457.737v14.4H910.3V457.99c0-5.374-2.586-8.213-7.047-8.213-4.816,0-7.807,3.6-7.807,9.429v12.927h-4.157V436.648h4.157v13.891a9.5,9.5,0,0,1,8.517-4.563c5.779,0,10.493,3.194,10.493,11.761" transform="translate(-611.386 -299.521)"/>
        <path id="Path_15" data-name="Path 15" d="M997.629,488.706v3.8h-2.281c-3.447,0-4.613-1.47-4.664-4a9.838,9.838,0,0,1-8.669,4.309c-5.678,0-9.531-2.839-9.531-7.553,0-5.171,3.6-8.061,10.392-8.061h7.6v-1.774c0-3.346-2.383-5.374-6.438-5.374-3.65,0-6.083,1.724-6.59,4.36H973.3c.608-5.069,4.715-8.06,10.95-8.06,6.59,0,10.392,3.3,10.392,9.328v11.305c0,1.369.507,1.723,1.673,1.723Zm-7.148-8.01h-8.01c-3.7,0-5.779,1.369-5.779,4.309,0,2.535,2.18,4.258,5.627,4.258,5.171,0,8.161-2.991,8.161-7.3Z" transform="translate(-667.081 -319.895)"/>
        <path id="Path_16" data-name="Path 16" d="M1052.21,455.287h-4.664v-3.8h4.664v-7.249h4.157v7.249h6.692v3.8h-6.692v15.259c0,2.179.761,2.991,2.991,2.991h4.106v3.8h-4.512c-4.968,0-6.742-2.18-6.742-6.742Z" transform="translate(-718.569 -304.726)"/>
        <path id="Path_17" data-name="Path 17" d="M1109.03,532.534a2.839,2.839,0,1,1-2.89,2.839,2.727,2.727,0,0,1,2.89-2.839" transform="translate(-758.762 -365.294)"/>
        <path id="Path_18" data-name="Path 18" d="M1157.665,478.111v14.4h-4.157V478.365c0-5.374-2.484-8.213-7-8.213-4.867,0-7.807,3.6-7.807,9.429v12.927h-4.157V466.655h3.6l.557,3.5c1.521-1.977,4.157-3.8,8.517-3.8,5.83,0,10.443,3.194,10.443,11.761" transform="translate(-778.249 -319.895)"/>
        <path id="Path_19" data-name="Path 19" d="M1207.348,467.319h4.411l7.959,20.632,7.705-20.632h4.411l-11.913,30.214c-1.622,4.157-2.585,5.779-6.235,5.779h-4.968v-3.8h3.7c2.382,0,2.788-.608,3.751-3.042l1.268-3.143Z" transform="translate(-828.186 -320.56)"/>
        <path id="Path_20" data-name="Path 20" d="M1282.248,479.632c0-7.909,5.12-13.282,12.623-13.282,6.337,0,10.342,3.549,11.406,9.226h-4.36c-.76-3.447-3.295-5.526-7.1-5.526-4.968,0-8.314,3.954-8.314,9.582s3.346,9.48,8.314,9.48a6.844,6.844,0,0,0,7.047-5.424h4.41c-1.014,5.576-5.221,9.125-11.507,9.125-7.554,0-12.522-5.12-12.522-13.18" transform="translate(-879.564 -319.895)"/>
      </g>
    </g>
    <text id="explore" class="cls-10" transform="translate(104 834)"><tspan x="0" y="56">explore</tspan></text>
    <g id="Polygon_1" data-name="Polygon 1" class="cls-11" transform="translate(347 859) rotate(90)">
      <path class="cls-12" d="M16,0,32,29H0Z"/>
      <path class="cls-13" d="M 16 6.210178375244141 L 5.081478118896484 26 L 26.91852188110352 26 L 16 6.210178375244141 M 16 0 L 32 29 L 0 29 L 16 0 Z"/>
    </g>
  </g>
</svg>
