<svg xmlns="http://www.w3.org/2000/svg" xmlns:xlink="http://www.w3.org/1999/xlink" width="1920" height="1606" viewBox="0 0 1920 1606">
  <defs>
    <style>
      .cls-1, .cls-16, .cls-17, .cls-3, .cls-6, .cls-7 {
        fill: none;
      }

      .cls-2 {
        clip-path: url(#clip-Manhattan_-_CB1_-_2024_);
      }

      .cls-3 {
        stroke: #000;
      }

      .cls-16, .cls-3 {
        stroke-width: 3px;
      }

      .cls-4 {
        fill: #fff;
      }

      .cls-5 {
        clip-path: url(#clip-path);
      }

      .cls-6, .cls-7 {
        stroke: #bababa;
      }

      .cls-7 {
        stroke-width: 5px;
      }

      .cls-8 {
        fill: url(#pattern);
      }

      .cls-9 {
        fill: #ffeb00;
        opacity: 0.5;
      }

      .cls-10, .cls-12 {
        font-size: 30px;
      }

      .cls-10 {
        font-family: AeonikTRIAL-Bold, Aeonik TRIAL;
        font-weight: 700;
      }

      .cls-11 {
        font-family: Helvetica-Bold, Helvetica;
      }

      .cls-12 {
        font-family: AeonikTRIAL-Regular, Aeonik TRIAL;
      }

      .cls-13 {
        clip-path: url(#clip-path-2);
      }

      .cls-14 {
        clip-path: url(#clip-path-3);
      }

      .cls-15 {
        font-family: Helvetica;
      }

      .cls-16, .cls-17 {
        stroke: #707070;
      }

      .cls-17 {
        stroke-width: 2px;
      }
    </style>
    <clipPath id="clip-path">
      <rect id="Rectangle_9" data-name="Rectangle 9" class="cls-1" width="281.813" height="151.595"/>
    </clipPath>
    <pattern id="pattern" preserveAspectRatio="none" width="100%" height="100%" viewBox="0 0 1222 1214">
      <image width="1222" height="1214" xlink:href="Manhattan%20-%20CB1%20-%202024-image.png"/>
    </pattern>
    <clipPath id="clip-path-2">
      <rect class="cls-1" width="763.369" height="874.5"/>
    </clipPath>
    <clipPath id="clip-path-3">
      <rect class="cls-1" width="1060" height="34"/>
    </clipPath>
    <clipPath id="clip-Manhattan_-_CB1_-_2024_">
      <rect width="1920" height="1606"/>
    </clipPath>
  </defs>
  <g id="Manhattan_-_CB1_-_2024_" data-name="Manhattan - CB1 - 2024 " class="cls-2">
    <rect class="cls-4" width="1920" height="1606"/>
    <path id="Path_3" data-name="Path 3" class="cls-3" d="M0,0" transform="translate(72.5 136.5)"/>
    <g id="Navigation">
      <rect id="Rectangle_4" data-name="Rectangle 4" class="cls-4" width="1920" height="218"/>
      <g id="Group_2" data-name="Group 2" transform="translate(106.5 33.202)">
        <g id="Group_1" data-name="Group 1" class="cls-5">
          <path id="Path_4" data-name="Path 4" class="cls-4" d="M275.583,151.661h-12.6l.416-28.307-20.784,28.307H216.266a4.265,4.265,0,0,1-4.185-3.442l-7.266-36.937-2.144,36.365a4.266,4.266,0,0,1-4.258,4.015H173.987a4.266,4.266,0,0,1-3.795-2.318l-9.92-19.329-1.365,18.43a4.265,4.265,0,0,1-4.359,3.949l-26.475-.651a4.266,4.266,0,0,1-4.049-3.294l-8.295-35.5L100.2,149.08a4.266,4.266,0,0,1-3.919,2.581H61.989a4.265,4.265,0,0,1-3.445-1.75L43.713,129.6l-2.268,18.322a4.265,4.265,0,0,1-4.233,3.742H21.12A12.12,12.12,0,0,0,9,163.78v32.376a12.12,12.12,0,0,0,12.12,12.12H39.935a4.265,4.265,0,0,1,4.125,3.182l1.667,6.348,5.336-7.7a4.265,4.265,0,0,1,3.505-1.835H74.185a4.265,4.265,0,0,1,4.118,3.154l8.59,31.814,3.77-31.214a4.265,4.265,0,0,1,4.234-3.754h14.373a4.266,4.266,0,0,1,4.266,4.266v6.98l8.409-9.764a4.266,4.266,0,0,1,3.232-1.482H152.2a4.266,4.266,0,0,1,3.881,2.5l6.646,14.572V210.577a2.3,2.3,0,0,1,2.3-2.3h23.591a2.036,2.036,0,0,1,2.02,2.289l-2.588,20.607,10.6-21.922a1.724,1.724,0,0,1,1.552-.974h39.744a4.265,4.265,0,0,1,2.907,1.145l18.879,17.588-3.2-13.482a4.266,4.266,0,0,1,4.15-5.251h12.9a12.119,12.119,0,0,0,12.12-12.12V163.78a12.119,12.119,0,0,0-12.12-12.119" transform="translate(-7.445 -92.053)"/>
          <path id="Path_5" data-name="Path 5" d="M77.946,242.211,69.357,210.4a2.715,2.715,0,0,0-2.617-2H47.123a2.711,2.711,0,0,0-2.227,1.166l-5.336,7.7-2.782-.491-1.667-6.348a2.712,2.712,0,0,0-2.621-2.022H13.675A13.69,13.69,0,0,1,0,194.718V162.342a13.69,13.69,0,0,1,13.675-13.675H29.767a2.714,2.714,0,0,0,2.69-2.378l2.267-18.322,2.8-.726,14.832,20.313a2.719,2.719,0,0,0,2.189,1.112H88.832a2.708,2.708,0,0,0,2.49-1.64l15.534-36.134,2.943.26,8.295,35.5a2.711,2.711,0,0,0,2.573,2.093l26.475.652a2.712,2.712,0,0,0,2.77-2.509l1.365-18.43,2.934-.6,9.92,19.329a2.7,2.7,0,0,0,2.412,1.473h24.425a2.713,2.713,0,0,0,2.706-2.551l2.144-36.365,3.079-.209,7.266,36.938a2.716,2.716,0,0,0,2.659,2.187h25.56L254.7,121l2.808.943-.393,26.729h11.024a13.69,13.69,0,0,1,13.675,13.675v32.376a13.69,13.69,0,0,1-13.675,13.675h-12.9a2.71,2.71,0,0,0-2.637,3.336l3.2,13.482-2.573,1.5L234.348,209.12a2.7,2.7,0,0,0-1.847-.727H192.757a.17.17,0,0,0-.152.1L182,230.41l-2.943-.871,2.588-20.607a.481.481,0,0,0-.477-.54H157.582a.747.747,0,0,0-.746.746v14.766l-2.97.645-6.646-14.572a2.717,2.717,0,0,0-2.466-1.586H117.731a2.708,2.708,0,0,0-2.054.942l-8.409,9.764-2.733-1.015V211.1a2.714,2.714,0,0,0-2.71-2.71H87.452a2.713,2.713,0,0,0-2.691,2.386l-3.769,31.214ZM47.123,205.282H66.74a5.831,5.831,0,0,1,5.619,4.3l6.5,24.089,2.81-23.27a5.825,5.825,0,0,1,5.778-5.123h14.373a5.827,5.827,0,0,1,5.821,5.821v2.792l5.675-6.59a5.815,5.815,0,0,1,4.41-2.022h27.023a5.834,5.834,0,0,1,5.3,3.405l3.676,8.06v-7.609a3.861,3.861,0,0,1,3.856-3.856h23.591a3.591,3.591,0,0,1,3.563,4.038l-1.408,11.208,6.476-13.394a3.3,3.3,0,0,1,2.952-1.852H232.5a5.8,5.8,0,0,1,3.968,1.562l15.119,14.085-2.013-8.482a5.82,5.82,0,0,1,5.663-7.165h12.9A10.576,10.576,0,0,0,278.7,194.718V162.342a10.576,10.576,0,0,0-10.564-10.564h-12.6l-1.555-1.578.345-23.442-17.9,24.385-1.254.635H208.821a5.833,5.833,0,0,1-5.711-4.7L198.2,122.135,196.778,146.3a5.827,5.827,0,0,1-5.81,5.478H166.543a5.8,5.8,0,0,1-5.178-3.163l-7.395-14.408-.957,12.914a5.816,5.816,0,0,1-5.8,5.391l-.147,0-26.475-.651a5.821,5.821,0,0,1-5.524-4.495l-7.219-30.9-13.667,31.79a5.815,5.815,0,0,1-5.347,3.522H54.544a5.839,5.839,0,0,1-4.7-2.388L37.329,132.25l-1.785,14.423a5.829,5.829,0,0,1-5.776,5.106H13.675A10.577,10.577,0,0,0,3.11,162.342v32.376a10.577,10.577,0,0,0,10.565,10.564H32.49a5.824,5.824,0,0,1,5.63,4.342l.809,3.082,3.411-4.92a5.822,5.822,0,0,1,4.783-2.5" transform="translate(0 -90.616)"/>
          <path id="Path_6" data-name="Path 6" d="M179.108,467.319h2.4l3.542,11.575,3.737-11.575h2.12l3.542,11.575,3.71-11.575h2.315l-4.742,14.225h-2.51l-3.431-10.571-3.57,10.571h-2.51Z" transform="translate(-148.161 -386.573)"/>
          <path id="Path_7" data-name="Path 7" d="M319.376,448.251v7.921h-2.287V448.39c0-2.957-1.423-4.519-3.877-4.519-2.65,0-4.3,1.98-4.3,5.188v7.112H306.63V436.648h2.287v7.642a5.224,5.224,0,0,1,4.686-2.51c3.18,0,5.773,1.757,5.773,6.471" transform="translate(-253.649 -361.202)"/>
          <path id="Path_8" data-name="Path 8" d="M387.018,473.63c0-4.323,2.9-7.28,7.057-7.28s7.057,2.956,7.057,7.28-2.9,7.28-7.057,7.28-7.057-2.956-7.057-7.28m11.77,0c0-3.04-1.9-5.244-4.714-5.244s-4.714,2.2-4.714,5.244,1.9,5.244,4.714,5.244,4.714-2.2,4.714-5.244" transform="translate(-320.147 -385.772)"/>
          <path id="Path_9" data-name="Path 9" d="M476.145,475.3c.14,1.255,1.227,2.12,3.152,2.12,1.646,0,2.65-.53,2.65-1.534,0-1.171-.976-1.255-3.291-1.562-3.347-.391-5.941-1.144-5.941-4.1,0-2.845,2.482-4.714,6.164-4.686,3.849,0,6.5,1.7,6.694,4.63h-3.766c-.112-1.144-1.2-1.841-2.789-1.841-1.534,0-2.538.558-2.538,1.478,0,1.088,1.227,1.2,3.291,1.45,3.291.335,6.025,1.088,6.025,4.323,0,2.845-2.678,4.658-6.527,4.658-3.988,0-6.694-1.869-6.861-4.937Z" transform="translate(-390.782 -385.102)"/>
          <path id="Path_10" data-name="Path 10" d="M570.049,476.889v3.319h-2.008c-2.036,0-2.677-.976-2.65-2.343a5.117,5.117,0,0,1-4.686,2.51c-3.1,0-5.327-1.478-5.327-4.212,0-3.04,2.287-4.77,6.582-4.77h2.845v-.7c0-1.283-.92-2.12-2.566-2.12-1.534,0-2.566.7-2.733,1.757h-3.793c.279-2.789,2.845-4.63,6.638-4.63,4.016,0,6.331,1.785,6.331,5.216V476c0,.753.307.893.921.893Zm-5.244-2.873h-2.873c-1.645,0-2.594.669-2.594,1.869,0,1,.809,1.646,2.12,1.646a3.091,3.091,0,0,0,3.347-3.236Z" transform="translate(-459.417 -385.237)"/>
          <path id="Path_11" data-name="Path 11" d="M644.157,434.36a2.289,2.289,0,1,1,2.287,2.2,2.216,2.216,0,0,1-2.287-2.2m.307,3.737h3.961v14.336h-3.961Z" transform="translate(-532.856 -357.463)"/>
          <path id="Path_12" data-name="Path 12" d="M685.788,436.648h3.933v19.524H686.29l-.391-1.98a5.307,5.307,0,0,1-4.407,2.148c-3.849,0-6.666-2.817-6.666-7.363,0-4.435,2.817-7.307,6.638-7.307a5.243,5.243,0,0,1,4.323,1.952Zm.056,12.384c0-2.454-1.339-4.156-3.486-4.156s-3.514,1.674-3.514,4.128,1.367,4.128,3.514,4.128,3.486-1.673,3.486-4.1" transform="translate(-558.227 -361.202)"/>
          <path id="Path_13" data-name="Path 13" d="M763.769,467.319h2.4l3.542,11.575,3.737-11.575h2.12l3.542,11.575,3.709-11.575h2.315l-4.742,14.225h-2.51l-3.431-10.571-3.57,10.571h-2.51Z" transform="translate(-631.801 -386.573)"/>
          <path id="Path_14" data-name="Path 14" d="M904.038,448.251v7.921h-2.287V448.39c0-2.957-1.422-4.519-3.877-4.519-2.65,0-4.3,1.98-4.3,5.188v7.112h-2.287V436.648h2.287v7.642a5.224,5.224,0,0,1,4.686-2.51c3.179,0,5.773,1.757,5.773,6.471" transform="translate(-737.29 -361.202)"/>
          <path id="Path_15" data-name="Path 15" d="M986.319,478.65v2.092h-1.255c-1.9,0-2.538-.809-2.566-2.2a5.413,5.413,0,0,1-4.769,2.371c-3.124,0-5.244-1.562-5.244-4.156,0-2.845,1.98-4.435,5.718-4.435h4.184v-.976c0-1.841-1.311-2.957-3.542-2.957-2.008,0-3.347.948-3.626,2.4h-2.287c.335-2.789,2.594-4.435,6.025-4.435,3.626,0,5.718,1.813,5.718,5.132v6.22c0,.753.279.948.92.948Zm-3.933-4.407h-4.407c-2.036,0-3.179.753-3.179,2.371,0,1.395,1.2,2.343,3.1,2.343,2.845,0,4.49-1.646,4.49-4.016Z" transform="translate(-804.454 -385.772)"/>
          <path id="Path_16" data-name="Path 16" d="M1050.112,450.316h-2.566v-2.092h2.566v-3.989h2.287v3.989h3.682v2.092H1052.4v8.4c0,1.2.418,1.646,1.646,1.646h2.259v2.092h-2.482c-2.733,0-3.71-1.2-3.71-3.71Z" transform="translate(-866.545 -367.478)"/>
          <path id="Path_17" data-name="Path 17" d="M1107.73,532.534a1.562,1.562,0,1,1-1.59,1.562,1.5,1.5,0,0,1,1.59-1.562" transform="translate(-915.015 -440.52)"/>
          <path id="Path_18" data-name="Path 18" d="M1147.267,472.821v7.921h-2.287V472.96c0-2.957-1.367-4.518-3.849-4.518-2.678,0-4.3,1.98-4.3,5.188v7.112h-2.287V466.518h1.98l.307,1.924a5.592,5.592,0,0,1,4.686-2.092c3.208,0,5.746,1.757,5.746,6.471" transform="translate(-938.515 -385.772)"/>
          <path id="Path_19" data-name="Path 19" d="M1207.348,467.319h2.427l4.379,11.352,4.24-11.352h2.427l-6.555,16.623c-.893,2.287-1.422,3.179-3.431,3.179H1208.1V485.03h2.036c1.311,0,1.534-.335,2.064-1.674l.7-1.729Z" transform="translate(-998.736 -386.573)"/>
          <path id="Path_20" data-name="Path 20" d="M1282.248,473.658c0-4.351,2.817-7.308,6.945-7.308a5.9,5.9,0,0,1,6.276,5.076h-2.4a3.705,3.705,0,0,0-3.9-3.04c-2.733,0-4.574,2.176-4.574,5.272s1.841,5.216,4.574,5.216a3.766,3.766,0,0,0,3.877-2.984h2.427c-.558,3.068-2.873,5.021-6.331,5.021-4.156,0-6.889-2.817-6.889-7.252" transform="translate(-1060.694 -385.772)"/>
        </g>
      </g>
    </g>
    <line id="Line_13" data-name="Line 13" class="cls-6" x2="763.369" transform="translate(106.667 580)"/>
    <line id="Line_13-2" data-name="Line 13" class="cls-6" x2="763.369" transform="translate(106.667 491)"/>
    <line id="Line_13-3" data-name="Line 13" class="cls-7" x2="763.369" transform="translate(106.667 215)"/>
    <line id="Line_13-4" data-name="Line 13" class="cls-7" x2="763.369" transform="translate(106.667 380)"/>
    <g id="Hero_Image" data-name="Hero Image" transform="translate(886.667 240)">
      <path id="Path_1" data-name="Path 1" class="cls-8" d="M665,190.667A10.667,10.667,0,0,1,675.667,180H1581a10.665,10.665,0,0,1,10.667,10.667V1112A10.665,10.665,0,0,1,1581,1122.667H675.667A10.667,10.667,0,0,1,665,1112Z" transform="translate(-665 -180)"/>
    </g>
    <circle id="Ellipse_1" data-name="Ellipse 1" class="cls-9" cx="36" cy="36" r="36" transform="translate(1271 671)"/>
    <text id="board_minutes" data-name="board/minutes" class="cls-10" transform="translate(116 418)"><tspan x="0" y="28">board</tspan><tspan class="cls-11" y="28">/</tspan><tspan y="28">minutes</tspan></text>
    <text id="january" class="cls-12" transform="translate(116 603)"><tspan x="0" y="28">january</tspan></text>
    <g id="Repeat_Grid_1" data-name="Repeat Grid 1" class="cls-13" transform="translate(106.667 660)">
      <g transform="translate(-106.667 -682.333)">
        <line id="Line_13-5" data-name="Line 13" class="cls-6" x2="763.369" transform="translate(106.667 682.833)"/>
        <text id="february" class="cls-12" transform="translate(116 705.833)"><tspan x="0" y="28">february</tspan></text>
      </g>
      <g transform="translate(-106.667 -604.333)">
        <line id="Line_13-6" data-name="Line 13" class="cls-6" x2="763.369" transform="translate(106.667 682.833)"/>
        <text id="march" class="cls-12" transform="translate(116 705.833)"><tspan x="0" y="28">march</tspan></text>
      </g>
      <g transform="translate(-106.667 -526.333)">
        <line id="Line_13-7" data-name="Line 13" class="cls-6" x2="763.369" transform="translate(106.667 682.833)"/>
        <text id="april" class="cls-12" transform="translate(116 705.833)"><tspan x="0" y="28">april</tspan></text>
      </g>
      <g transform="translate(-106.667 -448.333)">
        <line id="Line_13-8" data-name="Line 13" class="cls-6" x2="763.369" transform="translate(106.667 682.833)"/>
        <text id="may" class="cls-12" transform="translate(116 705.833)"><tspan x="0" y="28">may</tspan></text>
      </g>
      <g transform="translate(-106.667 -370.333)">
        <line id="Line_13-9" data-name="Line 13" class="cls-6" x2="763.369" transform="translate(106.667 682.833)"/>
        <text id="june" class="cls-12" transform="translate(116 705.833)"><tspan x="0" y="28">june</tspan></text>
      </g>
      <g transform="translate(-106.667 -292.333)">
        <line id="Line_13-10" data-name="Line 13" class="cls-6" x2="763.369" transform="translate(106.667 682.833)"/>
        <text id="july" class="cls-12" transform="translate(116 705.833)"><tspan x="0" y="28">july</tspan></text>
      </g>
      <g transform="translate(-106.667 -214.333)">
        <line id="Line_13-11" data-name="Line 13" class="cls-6" x2="763.369" transform="translate(106.667 682.833)"/>
        <text id="august" class="cls-12" transform="translate(116 705.833)"><tspan x="0" y="28">august</tspan></text>
      </g>
      <g transform="translate(-106.667 -136.333)">
        <line id="Line_13-12" data-name="Line 13" class="cls-6" x2="763.369" transform="translate(106.667 682.833)"/>
        <text id="september" class="cls-12" transform="translate(116 705.833)"><tspan x="0" y="28">september</tspan></text>
      </g>
      <g transform="translate(-106.667 -58.333)">
        <line id="Line_13-13" data-name="Line 13" class="cls-6" x2="763.369" transform="translate(106.667 682.833)"/>
        <text id="october" class="cls-12" transform="translate(116 705.833)"><tspan x="0" y="28">october</tspan></text>
      </g>
      <g transform="translate(-106.667 19.667)">
        <line id="Line_13-14" data-name="Line 13" class="cls-6" x2="763.369" transform="translate(106.667 682.833)"/>
        <text id="november" class="cls-12" transform="translate(116 705.833)"><tspan x="0" y="28">november</tspan></text>
      </g>
      <g transform="translate(-106.667 97.667)">
        <line id="Line_13-15" data-name="Line 13" class="cls-6" x2="763.369" transform="translate(106.667 682.833)"/>
        <text id="december" class="cls-12" transform="translate(116 705.833)"><tspan x="0" y="28">december</tspan></text>
      </g>
      <g transform="translate(-106.667 175.667)">
        <line id="Line_13-16" data-name="Line 13" class="cls-6" x2="763.369" transform="translate(106.667 682.833)"/>
        <text id="january-2" data-name="january" class="cls-12" transform="translate(116 705.833)"><tspan x="0" y="28">january</tspan></text>
      </g>
    </g>
    <g id="Repeat_Grid_2" data-name="Repeat Grid 2" class="cls-14" transform="translate(180 514)">
      <g transform="translate(-170 -514)">
        <text id="_2024_" data-name="2024 " class="cls-12" transform="translate(170 514)"><tspan x="0" y="28">2024 </tspan></text>
      </g>
      <g transform="translate(-63 -514)">
        <text id="_2023_" data-name="2023 " class="cls-12" transform="translate(170 514)"><tspan x="0" y="28">2023 </tspan></text>
      </g>
      <g transform="translate(44 -514)">
        <text id="_2022_" data-name="2022 " class="cls-12" transform="translate(170 514)"><tspan x="0" y="28">2022 </tspan></text>
      </g>
      <g transform="translate(151 -514)">
        <text id="_2021_" data-name="2021 " class="cls-12" transform="translate(170 514)"><tspan x="0" y="28">2021 </tspan></text>
      </g>
      <g transform="translate(258 -514)">
        <text id="_2020_" data-name="2020 " class="cls-12" transform="translate(170 514)"><tspan x="0" y="28">2020 </tspan></text>
      </g>
      <g transform="translate(365 -514)">
        <text id="_2019" data-name="2019" class="cls-12" transform="translate(170 514)"><tspan x="0" y="28">2019</tspan></text>
      </g>
      <g transform="translate(472 -514)">
        <text id="_2018" data-name="2018" class="cls-12" transform="translate(170 514)"><tspan x="0" y="28">2018</tspan></text>
      </g>
      <g transform="translate(579 -514)">
        <text id="_2017" data-name="2017" class="cls-12" transform="translate(170 514)"><tspan x="0" y="28">2017</tspan></text>
      </g>
      <g transform="translate(686 -514)">
        <text id="_2016" data-name="2016" class="cls-12" transform="translate(170 514)"><tspan x="0" y="28">2016</tspan></text>
      </g>
      <g transform="translate(793 -514)">
        <text id="_2015" data-name="2015" class="cls-12" transform="translate(170 514)"><tspan x="0" y="28">2015</tspan></text>
      </g>
    </g>
    <text id="manhattan_community_board_1_" data-name="manhattan community board 1 " class="cls-10" transform="translate(116 253)"><tspan x="0" y="28">manhattan </tspan><tspan x="0" y="62">community </tspan><tspan x="0" y="96">board 1 </tspan></text>
    <text id="committee_minutes" data-name="committee/minutes" class="cls-12" transform="translate(378 418)"><tspan x="0" y="28">committee</tspan><tspan class="cls-15" y="28">/</tspan><tspan y="28">minutes</tspan></text>
    <line id="Line_1" data-name="Line 1" class="cls-16" x2="75" transform="translate(175.5 549.5)"/>
    <path id="Path_21" data-name="Path 21" class="cls-17" d="M132.66,524.558l-10.329,10.329,10.329,10.329" transform="translate(-15.664 -3.887)"/>
    <rect id="Rectangle_10" data-name="Rectangle 10" class="cls-4" width="452" height="53" transform="translate(809 504)"/>
    <path id="Path_22" data-name="Path 22" class="cls-17" d="M122.331,524.558l10.329,10.329-10.329,10.329" transform="translate(732.004 -3.887)"/>
  </g>
</svg>
