<svg xmlns="http://www.w3.org/2000/svg" xmlns:xlink="http://www.w3.org/1999/xlink" width="1920" height="10975" viewBox="0 0 1920 10975">
  <defs>
    <style>
      .cls-1, .cls-15, .cls-3, .cls-6, .cls-7 {
        fill: none;
      }

      .cls-2 {
        clip-path: url(#clip-Manhattan_-_CB1_-_2024_1);
      }

      .cls-3 {
        stroke: #000;
      }

      .cls-15, .cls-3 {
        stroke-width: 3px;
      }

      .cls-14, .cls-4 {
        fill: #fff;
      }

      .cls-5 {
        clip-path: url(#clip-path);
      }

      .cls-6, .cls-7 {
        stroke: #bababa;
      }

      .cls-7 {
        stroke-width: 5px;
      }

      .cls-10, .cls-8 {
        font-size: 30px;
      }

      .cls-13, .cls-8 {
        font-family: AeonikTRIAL-Bold, Aeonik TRIAL;
        font-weight: 700;
      }

      .cls-9 {
        font-family: Helvetica-Bold, Helvetica;
      }

      .cls-10, .cls-12 {
        font-family: AeonikTRIAL-Regular, Aeonik TRIAL;
      }

      .cls-11 {
        font-family: Helvetica;
      }

      .cls-13 {
        font-size: 40px;
      }

      .cls-14, .cls-15 {
        stroke: #707070;
      }

      .cls-16 {
        stroke: none;
      }
    </style>
    <clipPath id="clip-path">
      <rect id="Rectangle_9" data-name="Rectangle 9" class="cls-1" width="281.813" height="151.595"/>
    </clipPath>
    <clipPath id="clip-Manhattan_-_CB1_-_2024_1">
      <rect width="1920" height="10975"/>
    </clipPath>
  </defs>
  <g id="Manhattan_-_CB1_-_2024_1" data-name="Manhattan - CB1 - 2024 – 1" class="cls-2">
    <rect class="cls-4" width="1920" height="10975"/>
    <path id="Path_3" data-name="Path 3" class="cls-3" d="M0,0" transform="translate(72.5 136.5)"/>
    <g id="Navigation">
      <rect id="Rectangle_4" data-name="Rectangle 4" class="cls-4" width="1920" height="218"/>
      <g id="Group_2" data-name="Group 2" transform="translate(106.5 33.202)">
        <g id="Group_1" data-name="Group 1" class="cls-5">
          <path id="Path_4" data-name="Path 4" class="cls-4" d="M275.583,151.661h-12.6l.416-28.307-20.784,28.307H216.266a4.265,4.265,0,0,1-4.185-3.442l-7.266-36.937-2.144,36.365a4.266,4.266,0,0,1-4.258,4.015H173.987a4.266,4.266,0,0,1-3.795-2.318l-9.92-19.329-1.365,18.43a4.265,4.265,0,0,1-4.359,3.949l-26.475-.651a4.266,4.266,0,0,1-4.049-3.294l-8.295-35.5L100.2,149.08a4.266,4.266,0,0,1-3.919,2.581H61.989a4.265,4.265,0,0,1-3.445-1.75L43.713,129.6l-2.268,18.322a4.265,4.265,0,0,1-4.233,3.742H21.12A12.12,12.12,0,0,0,9,163.78v32.376a12.12,12.12,0,0,0,12.12,12.12H39.935a4.265,4.265,0,0,1,4.125,3.182l1.667,6.348,5.336-7.7a4.265,4.265,0,0,1,3.505-1.835H74.185a4.265,4.265,0,0,1,4.118,3.154l8.59,31.814,3.77-31.214a4.265,4.265,0,0,1,4.234-3.754h14.373a4.266,4.266,0,0,1,4.266,4.266v6.98l8.409-9.764a4.266,4.266,0,0,1,3.232-1.482H152.2a4.266,4.266,0,0,1,3.881,2.5l6.646,14.572V210.577a2.3,2.3,0,0,1,2.3-2.3h23.591a2.036,2.036,0,0,1,2.02,2.289l-2.588,20.607,10.6-21.922a1.724,1.724,0,0,1,1.552-.974h39.744a4.265,4.265,0,0,1,2.907,1.145l18.879,17.588-3.2-13.482a4.266,4.266,0,0,1,4.15-5.251h12.9a12.119,12.119,0,0,0,12.12-12.12V163.78a12.119,12.119,0,0,0-12.12-12.119" transform="translate(-7.445 -92.053)"/>
          <path id="Path_5" data-name="Path 5" d="M77.946,242.211,69.357,210.4a2.715,2.715,0,0,0-2.617-2H47.123a2.711,2.711,0,0,0-2.227,1.166l-5.336,7.7-2.782-.491-1.667-6.348a2.712,2.712,0,0,0-2.621-2.022H13.675A13.69,13.69,0,0,1,0,194.718V162.342a13.69,13.69,0,0,1,13.675-13.675H29.767a2.714,2.714,0,0,0,2.69-2.378l2.267-18.322,2.8-.726,14.832,20.313a2.719,2.719,0,0,0,2.189,1.112H88.832a2.708,2.708,0,0,0,2.49-1.64l15.534-36.134,2.943.26,8.295,35.5a2.711,2.711,0,0,0,2.573,2.093l26.475.652a2.712,2.712,0,0,0,2.77-2.509l1.365-18.43,2.934-.6,9.92,19.329a2.7,2.7,0,0,0,2.412,1.473h24.425a2.713,2.713,0,0,0,2.706-2.551l2.144-36.365,3.079-.209,7.266,36.938a2.716,2.716,0,0,0,2.659,2.187h25.56L254.7,121l2.808.943-.393,26.729h11.024a13.69,13.69,0,0,1,13.675,13.675v32.376a13.69,13.69,0,0,1-13.675,13.675h-12.9a2.71,2.71,0,0,0-2.637,3.336l3.2,13.482-2.573,1.5L234.348,209.12a2.7,2.7,0,0,0-1.847-.727H192.757a.17.17,0,0,0-.152.1L182,230.41l-2.943-.871,2.588-20.607a.481.481,0,0,0-.477-.54H157.582a.747.747,0,0,0-.746.746v14.766l-2.97.645-6.646-14.572a2.717,2.717,0,0,0-2.466-1.586H117.731a2.708,2.708,0,0,0-2.054.942l-8.409,9.764-2.733-1.015V211.1a2.714,2.714,0,0,0-2.71-2.71H87.452a2.713,2.713,0,0,0-2.691,2.386l-3.769,31.214ZM47.123,205.282H66.74a5.831,5.831,0,0,1,5.619,4.3l6.5,24.089,2.81-23.27a5.825,5.825,0,0,1,5.778-5.123h14.373a5.827,5.827,0,0,1,5.821,5.821v2.792l5.675-6.59a5.815,5.815,0,0,1,4.41-2.022h27.023a5.834,5.834,0,0,1,5.3,3.405l3.676,8.06v-7.609a3.861,3.861,0,0,1,3.856-3.856h23.591a3.591,3.591,0,0,1,3.563,4.038l-1.408,11.208,6.476-13.394a3.3,3.3,0,0,1,2.952-1.852H232.5a5.8,5.8,0,0,1,3.968,1.562l15.119,14.085-2.013-8.482a5.82,5.82,0,0,1,5.663-7.165h12.9A10.576,10.576,0,0,0,278.7,194.718V162.342a10.576,10.576,0,0,0-10.564-10.564h-12.6l-1.555-1.578.345-23.442-17.9,24.385-1.254.635H208.821a5.833,5.833,0,0,1-5.711-4.7L198.2,122.135,196.778,146.3a5.827,5.827,0,0,1-5.81,5.478H166.543a5.8,5.8,0,0,1-5.178-3.163l-7.395-14.408-.957,12.914a5.816,5.816,0,0,1-5.8,5.391l-.147,0-26.475-.651a5.821,5.821,0,0,1-5.524-4.495l-7.219-30.9-13.667,31.79a5.815,5.815,0,0,1-5.347,3.522H54.544a5.839,5.839,0,0,1-4.7-2.388L37.329,132.25l-1.785,14.423a5.829,5.829,0,0,1-5.776,5.106H13.675A10.577,10.577,0,0,0,3.11,162.342v32.376a10.577,10.577,0,0,0,10.565,10.564H32.49a5.824,5.824,0,0,1,5.63,4.342l.809,3.082,3.411-4.92a5.822,5.822,0,0,1,4.783-2.5" transform="translate(0 -90.616)"/>
          <path id="Path_6" data-name="Path 6" d="M179.108,467.319h2.4l3.542,11.575,3.737-11.575h2.12l3.542,11.575,3.71-11.575h2.315l-4.742,14.225h-2.51l-3.431-10.571-3.57,10.571h-2.51Z" transform="translate(-148.161 -386.573)"/>
          <path id="Path_7" data-name="Path 7" d="M319.376,448.251v7.921h-2.287V448.39c0-2.957-1.423-4.519-3.877-4.519-2.65,0-4.3,1.98-4.3,5.188v7.112H306.63V436.648h2.287v7.642a5.224,5.224,0,0,1,4.686-2.51c3.18,0,5.773,1.757,5.773,6.471" transform="translate(-253.649 -361.202)"/>
          <path id="Path_8" data-name="Path 8" d="M387.018,473.63c0-4.323,2.9-7.28,7.057-7.28s7.057,2.956,7.057,7.28-2.9,7.28-7.057,7.28-7.057-2.956-7.057-7.28m11.77,0c0-3.04-1.9-5.244-4.714-5.244s-4.714,2.2-4.714,5.244,1.9,5.244,4.714,5.244,4.714-2.2,4.714-5.244" transform="translate(-320.147 -385.772)"/>
          <path id="Path_9" data-name="Path 9" d="M476.145,475.3c.14,1.255,1.227,2.12,3.152,2.12,1.646,0,2.65-.53,2.65-1.534,0-1.171-.976-1.255-3.291-1.562-3.347-.391-5.941-1.144-5.941-4.1,0-2.845,2.482-4.714,6.164-4.686,3.849,0,6.5,1.7,6.694,4.63h-3.766c-.112-1.144-1.2-1.841-2.789-1.841-1.534,0-2.538.558-2.538,1.478,0,1.088,1.227,1.2,3.291,1.45,3.291.335,6.025,1.088,6.025,4.323,0,2.845-2.678,4.658-6.527,4.658-3.988,0-6.694-1.869-6.861-4.937Z" transform="translate(-390.782 -385.102)"/>
          <path id="Path_10" data-name="Path 10" d="M570.049,476.889v3.319h-2.008c-2.036,0-2.677-.976-2.65-2.343a5.117,5.117,0,0,1-4.686,2.51c-3.1,0-5.327-1.478-5.327-4.212,0-3.04,2.287-4.77,6.582-4.77h2.845v-.7c0-1.283-.92-2.12-2.566-2.12-1.534,0-2.566.7-2.733,1.757h-3.793c.279-2.789,2.845-4.63,6.638-4.63,4.016,0,6.331,1.785,6.331,5.216V476c0,.753.307.893.921.893Zm-5.244-2.873h-2.873c-1.645,0-2.594.669-2.594,1.869,0,1,.809,1.646,2.12,1.646a3.091,3.091,0,0,0,3.347-3.236Z" transform="translate(-459.417 -385.237)"/>
          <path id="Path_11" data-name="Path 11" d="M644.157,434.36a2.289,2.289,0,1,1,2.287,2.2,2.216,2.216,0,0,1-2.287-2.2m.307,3.737h3.961v14.336h-3.961Z" transform="translate(-532.856 -357.463)"/>
          <path id="Path_12" data-name="Path 12" d="M685.788,436.648h3.933v19.524H686.29l-.391-1.98a5.307,5.307,0,0,1-4.407,2.148c-3.849,0-6.666-2.817-6.666-7.363,0-4.435,2.817-7.307,6.638-7.307a5.243,5.243,0,0,1,4.323,1.952Zm.056,12.384c0-2.454-1.339-4.156-3.486-4.156s-3.514,1.674-3.514,4.128,1.367,4.128,3.514,4.128,3.486-1.673,3.486-4.1" transform="translate(-558.227 -361.202)"/>
          <path id="Path_13" data-name="Path 13" d="M763.769,467.319h2.4l3.542,11.575,3.737-11.575h2.12l3.542,11.575,3.709-11.575h2.315l-4.742,14.225h-2.51l-3.431-10.571-3.57,10.571h-2.51Z" transform="translate(-631.801 -386.573)"/>
          <path id="Path_14" data-name="Path 14" d="M904.038,448.251v7.921h-2.287V448.39c0-2.957-1.422-4.519-3.877-4.519-2.65,0-4.3,1.98-4.3,5.188v7.112h-2.287V436.648h2.287v7.642a5.224,5.224,0,0,1,4.686-2.51c3.179,0,5.773,1.757,5.773,6.471" transform="translate(-737.29 -361.202)"/>
          <path id="Path_15" data-name="Path 15" d="M986.319,478.65v2.092h-1.255c-1.9,0-2.538-.809-2.566-2.2a5.413,5.413,0,0,1-4.769,2.371c-3.124,0-5.244-1.562-5.244-4.156,0-2.845,1.98-4.435,5.718-4.435h4.184v-.976c0-1.841-1.311-2.957-3.542-2.957-2.008,0-3.347.948-3.626,2.4h-2.287c.335-2.789,2.594-4.435,6.025-4.435,3.626,0,5.718,1.813,5.718,5.132v6.22c0,.753.279.948.92.948Zm-3.933-4.407h-4.407c-2.036,0-3.179.753-3.179,2.371,0,1.395,1.2,2.343,3.1,2.343,2.845,0,4.49-1.646,4.49-4.016Z" transform="translate(-804.454 -385.772)"/>
          <path id="Path_16" data-name="Path 16" d="M1050.112,450.316h-2.566v-2.092h2.566v-3.989h2.287v3.989h3.682v2.092H1052.4v8.4c0,1.2.418,1.646,1.646,1.646h2.259v2.092h-2.482c-2.733,0-3.71-1.2-3.71-3.71Z" transform="translate(-866.545 -367.478)"/>
          <path id="Path_17" data-name="Path 17" d="M1107.73,532.534a1.562,1.562,0,1,1-1.59,1.562,1.5,1.5,0,0,1,1.59-1.562" transform="translate(-915.015 -440.52)"/>
          <path id="Path_18" data-name="Path 18" d="M1147.267,472.821v7.921h-2.287V472.96c0-2.957-1.367-4.518-3.849-4.518-2.678,0-4.3,1.98-4.3,5.188v7.112h-2.287V466.518h1.98l.307,1.924a5.592,5.592,0,0,1,4.686-2.092c3.208,0,5.746,1.757,5.746,6.471" transform="translate(-938.515 -385.772)"/>
          <path id="Path_19" data-name="Path 19" d="M1207.348,467.319h2.427l4.379,11.352,4.24-11.352h2.427l-6.555,16.623c-.893,2.287-1.422,3.179-3.431,3.179H1208.1V485.03h2.036c1.311,0,1.534-.335,2.064-1.674l.7-1.729Z" transform="translate(-998.736 -386.573)"/>
          <path id="Path_20" data-name="Path 20" d="M1282.248,473.658c0-4.351,2.817-7.308,6.945-7.308a5.9,5.9,0,0,1,6.276,5.076h-2.4a3.705,3.705,0,0,0-3.9-3.04c-2.733,0-4.574,2.176-4.574,5.272s1.841,5.216,4.574,5.216a3.766,3.766,0,0,0,3.877-2.984h2.427c-.558,3.068-2.873,5.021-6.331,5.021-4.156,0-6.889-2.817-6.889-7.252" transform="translate(-1060.694 -385.772)"/>
        </g>
      </g>
    </g>
    <line id="Line_13" data-name="Line 13" class="cls-6" x2="284.528" transform="translate(106.667 563)"/>
    <line id="Line_13-2" data-name="Line 13" class="cls-6" x2="284.528" transform="translate(106.667 728)"/>
    <line id="Line_13-3" data-name="Line 13" class="cls-6" x2="284.528" transform="translate(106.667 826)"/>
    <line id="Line_13-4" data-name="Line 13" class="cls-6" x2="284.528" transform="translate(106.667 1223)"/>
    <line id="Line_13-5" data-name="Line 13" class="cls-7" x2="284.528" transform="translate(106.667 290)"/>
    <line id="Line_13-6" data-name="Line 13" class="cls-7" x2="1365" transform="translate(441.5 290)"/>
    <line id="Line_13-7" data-name="Line 13" class="cls-7" x2="1419.833" transform="translate(386.667 10894)"/>
    <line id="Line_13-8" data-name="Line 13" class="cls-7" x2="284.528" transform="translate(106.667 452)"/>
    <text id="board_minutes" data-name="board/minutes" class="cls-8" transform="translate(116 490)"><tspan x="0" y="28">board</tspan><tspan class="cls-9" y="28">/</tspan><tspan y="28">minutes</tspan></text>
    <text id="Tuesday_January_23_2024_" data-name="Tuesday, January 23, 2024 " class="cls-10" transform="translate(116 588)"><tspan x="0" y="28">Tuesday, </tspan><tspan x="0" y="62">January 23, </tspan><tspan x="0" y="96">2024 </tspan></text>
    <text id="_6:00_PM_" data-name="6:00 PM " class="cls-10" transform="translate(116 753)"><tspan x="0" y="28">6</tspan><tspan class="cls-11" y="28">:</tspan><tspan y="28">00 PM </tspan></text>
    <text id="_1_Centre_Street_Northside_and_Live_Remote_Meeting_-_https:_live.mcb1.nyc_The_public_is_welcome_to_attend_in_person_or_on_webex_" data-name="1 Centre Street, Northside  
and Live Remote Meeting - https://live.mcb1.nyc 

The public is welcome to attend in person or on webex  " class="cls-10" transform="translate(116 851)"><tspan x="0" y="28">1 Centre Street, </tspan><tspan x="0" y="62" xml:space="preserve">Northside  </tspan><tspan x="0" y="96">and Live Remote </tspan><tspan x="0" y="130">Meeting - https</tspan><tspan class="cls-11" y="130">://</tspan><tspan x="0" y="171">live.mcb1.nyc </tspan><tspan x="0" y="205"></tspan><tspan x="0" y="239">The public is </tspan><tspan x="0" y="273">welcome to </tspan><tspan x="0" y="307">attend in person </tspan><tspan x="0" y="341" xml:space="preserve">or on webex  </tspan></text>
    <text id="AGENDA_Public_Session_6:00_PM_7:00_PM_A_Comments_by_members_of_the_public_1-2_minutes_per_speaker_Jackie_Wong_speaking_in_opposition_to_proposed_shelter_on_Beekman_Street_Matt_on_behalf_of_Spruce_PTA_-_speaking_in_opposition_to_propose" data-name="AGENDA 

Public Session (6:00 PM – 7:00 PM) 

A) Comments by members of the public (1-2 minutes per speaker) 

●  Jackie Wong  speaking in opposition to proposed shelter on Beekman Street 
●  Matt on behalf of Spruce PTA - speaking in opposition to propose" class="cls-10" transform="translate(442 317)"><tspan x="0" y="28">AGENDA </tspan><tspan x="0" y="62"></tspan><tspan x="0" y="96">Public Session </tspan><tspan class="cls-11" y="96">(</tspan><tspan y="96">6</tspan><tspan class="cls-11" y="96">:</tspan><tspan y="96">00 PM </tspan><tspan class="cls-11" y="96">–</tspan><tspan y="96" xml:space="preserve"> 7</tspan><tspan class="cls-11" y="96">:</tspan><tspan y="96">00 PM</tspan><tspan class="cls-11" y="96">)</tspan><tspan y="96"> </tspan><tspan x="0" y="137"></tspan><tspan x="0" y="171">A</tspan><tspan class="cls-11" y="171">)</tspan><tspan y="171" xml:space="preserve"> Comments by members of the public </tspan><tspan class="cls-11" y="171">(</tspan><tspan y="171">1-2 minutes per speaker</tspan><tspan class="cls-11" y="171">)</tspan><tspan y="171"> </tspan><tspan x="0" y="212"></tspan><tspan class="cls-11"><tspan x="0" y="246">●</tspan><tspan class="cls-12" y="246" xml:space="preserve">  Jackie Wong  speaking in opposition to proposed shelter on Beekman Street </tspan><tspan x="0" y="287">●</tspan><tspan class="cls-12" y="287" xml:space="preserve">  Matt on behalf of Spruce PTA - speaking in opposition to proposed shelter on Beekman </tspan></tspan><tspan x="0" y="328"></tspan><tspan x="0" y="362">Street </tspan><tspan x="0" y="396"></tspan><tspan class="cls-11"><tspan x="0" y="430">●</tspan><tspan class="cls-12" y="430" xml:space="preserve">  President of South Bridge Towers - speaking in opposition to proposed shelter on </tspan></tspan><tspan x="0" y="471"></tspan><tspan x="0" y="505">Beekman Street </tspan><tspan x="0" y="539"></tspan><tspan class="cls-11"><tspan x="0" y="573">●</tspan><tspan class="cls-12" y="573" xml:space="preserve">  Charles Trualto, South Bridge Towers board -  speaking in opposition to proposed shelter </tspan></tspan><tspan x="0" y="614"></tspan><tspan x="0" y="648">on Beekman Street </tspan><tspan x="0" y="682"></tspan><tspan class="cls-11"><tspan x="0" y="716">●</tspan><tspan class="cls-12" y="716" xml:space="preserve">  Melanie Schnuriger  Pine Street School parent speaking in opposition to proposed shelter </tspan></tspan><tspan x="0" y="757"></tspan><tspan x="0" y="791">on Beekman Street </tspan><tspan x="0" y="825"></tspan><tspan class="cls-11"><tspan x="0" y="859">●</tspan><tspan class="cls-12" y="859" xml:space="preserve">  Dan Cioaca speaking in opposition to the proposed shelter </tspan><tspan x="0" y="900">●</tspan><tspan class="cls-12" y="900" xml:space="preserve">  Titus Negrescu - Manager of Beekman Hotel - speaking in opposition to proposed shelter </tspan></tspan><tspan x="0" y="941"></tspan><tspan x="0" y="975">on Beekman Street </tspan><tspan x="0" y="1009"></tspan><tspan class="cls-11"><tspan x="0" y="1043">●</tspan><tspan class="cls-12" y="1043" xml:space="preserve">  Scott Hobart - speaking in opposition to proposed shelter on Beekman Street </tspan><tspan x="0" y="1084">●</tspan><tspan class="cls-12" y="1084" xml:space="preserve">  Lewis Gross DDS - speaking in opposition to proposed shelter on Beekman Street  </tspan><tspan x="0" y="1125">●</tspan><tspan class="cls-12" y="1125" xml:space="preserve">  Charles Chawalko - speaking in opposition to proposed shelter on Beekman Street </tspan><tspan x="0" y="1166">●</tspan><tspan class="cls-12" y="1166" xml:space="preserve">  Tiffany Winbush - concerned that the city did not due its </tspan><tspan y="1166">“</tspan><tspan class="cls-12" y="1166">due diligence</tspan><tspan y="1166">”</tspan><tspan class="cls-12" y="1166" xml:space="preserve"> with regard to </tspan></tspan><tspan x="0" y="1207"></tspan><tspan x="0" y="1241" xml:space="preserve">the proposed shelter on beekman street  </tspan><tspan x="0" y="1275"></tspan><tspan class="cls-11"><tspan x="0" y="1309">●</tspan><tspan class="cls-12" y="1309" xml:space="preserve">  Scott Hobart - Friends of Beekman - speaking in opposition to proposed shelter on </tspan></tspan><tspan x="0" y="1350"></tspan><tspan x="0" y="1384">Beekman Street </tspan><tspan x="0" y="1418"></tspan><tspan class="cls-11"><tspan x="0" y="1452">●</tspan><tspan class="cls-12" y="1452" xml:space="preserve">  Carlo Collabro - speaking in opposition to proposed shelter on Beekman Street </tspan><tspan x="0" y="1493">●</tspan><tspan class="cls-12" y="1493" xml:space="preserve">  Nora Ostrovsky - speaking in opposition to the proposed shelter on Beekman Street </tspan><tspan x="0" y="1534">●</tspan><tspan class="cls-12" y="1534" xml:space="preserve">  Maureen Silverman - asking residents to call congressman Goldman to call for a ceasefire </tspan></tspan><tspan x="0" y="1575"></tspan><tspan x="0" y="1609" xml:space="preserve">in the war in Palestine  </tspan><tspan x="0" y="1643"></tspan><tspan class="cls-11"><tspan x="0" y="1677">●</tspan><tspan class="cls-12" y="1677" xml:space="preserve">  Jason Chen - DSNY </tspan></tspan><tspan x="0" y="1718"></tspan><tspan x="0" y="1752" xml:space="preserve">Public Hearing  </tspan><tspan x="0" y="1786"></tspan><tspan x="0" y="1820">Topic</tspan><tspan class="cls-11" y="1820">:</tspan><tspan y="1820" xml:space="preserve"> City of Yes for Economic Opportunity proposal </tspan><tspan class="cls-11" y="1820">(</tspan><tspan y="1820">N240010ZRY and N240011ZRY</tspan><tspan class="cls-11" y="1820">)</tspan><tspan y="1820"> </tspan><tspan x="0" y="1861">Zoning Text Amendment </tspan><tspan x="0" y="1895">Jill Goodkind speaking about the economic plan. </tspan><tspan x="0" y="1929"></tspan><tspan x="0" y="1963">Business Session </tspan><tspan x="0" y="1997"></tspan><tspan x="0" y="2031">A</tspan><tspan class="cls-11" y="2031">)</tspan><tspan y="2031" xml:space="preserve">  Adoption of December 2023 minutes </tspan><tspan x="0" y="2072">Motion to adopt was passed unanimously as presented by a roll call of 38 in favor, 0 opposed, 0 </tspan><tspan x="0" y="2106">abstained and 0 recused </tspan><tspan x="0" y="2140"></tspan><tspan x="0" y="2174">B</tspan><tspan class="cls-11" y="2174">)</tspan><tspan y="2174" xml:space="preserve">  Updates from Elected Officials </tspan><tspan x="0" y="2215"></tspan><tspan x="0" y="2249" xml:space="preserve">a.  Mark Levine - Updated attendees on the proposed Beekman Street Shelter, City of </tspan><tspan x="0" y="2283"></tspan><tspan x="0" y="2317" xml:space="preserve">Yes and other priorities  </tspan><tspan x="0" y="2351"></tspan><tspan x="0" y="2385" xml:space="preserve">b.  Tevin Williams - Rep Goldman</tspan><tspan class="cls-11" y="2385">’</tspan><tspan y="2385">s office - updated the board on priorities that impact </tspan><tspan x="0" y="2426"></tspan><tspan x="0" y="2460">the community </tspan><tspan x="0" y="2494"></tspan><tspan x="0" y="2528" xml:space="preserve">c.  Dan Byers - Senator Kavanugh</tspan><tspan class="cls-11" y="2528">’</tspan><tspan y="2528">s office - updated the board on priorities that impact </tspan><tspan x="0" y="2569"></tspan><tspan x="0" y="2603">the community - 212-298-5565 </tspan><tspan x="0" y="2637"></tspan><tspan x="0" y="2671" xml:space="preserve">d.  Roy Ruiz - AM Glick</tspan><tspan class="cls-11" y="2671">’</tspan><tspan y="2671">s office - updated the board on priorities that impact the </tspan><tspan x="0" y="2712"></tspan><tspan x="0" y="2746">community </tspan><tspan x="0" y="2780"></tspan><tspan x="0" y="2814" xml:space="preserve">e.  Max Deutsch - CM Marte - updated the board on priorities that impact the community </tspan><tspan x="0" y="2848" xml:space="preserve">f.  Lupe Hernandez - Public Advocate</tspan><tspan class="cls-11" y="2848">’</tspan><tspan y="2848">s office - updated the board on priorities that </tspan><tspan x="0" y="2889"></tspan><tspan x="0" y="2923">impact the community </tspan><tspan x="0" y="2957"></tspan><tspan x="0" y="2991">C</tspan><tspan class="cls-11" y="2991">)</tspan><tspan y="2991" xml:space="preserve">  Treasurer</tspan><tspan class="cls-11" y="2991">’</tspan><tspan y="2991">s Report </tspan><tspan class="cls-11" y="2991">–</tspan><tspan y="2991" xml:space="preserve"> M. James </tspan><tspan x="0" y="3032"></tspan><tspan x="0" y="3066">D</tspan><tspan class="cls-11" y="3066">)</tspan><tspan y="3066" xml:space="preserve">  District Manager</tspan><tspan class="cls-11" y="3066">’</tspan><tspan y="3066">s Report </tspan><tspan class="cls-11" y="3066">–</tspan><tspan y="3066" xml:space="preserve"> Z. Bommer  </tspan><tspan x="0" y="3107"></tspan><tspan x="0" y="3141">E</tspan><tspan class="cls-11" y="3141">)</tspan><tspan y="3141" xml:space="preserve">  Chairperson</tspan><tspan class="cls-11" y="3141">’</tspan><tspan y="3141">s Report </tspan><tspan class="cls-11" y="3141">–</tspan><tspan y="3141" xml:space="preserve"> T. Meltzer  </tspan><tspan x="0" y="3182"></tspan><tspan x="0" y="3216">Report </tspan><tspan x="0" y="3250"></tspan><tspan x="0" y="3284">Committee Reports </tspan><tspan x="0" y="3318"></tspan><tspan x="0" y="3352">January 2024 resolutions </tspan><tspan x="0" y="3386"></tspan><tspan x="0" y="3420">Committee Reports </tspan><tspan x="0" y="3454"></tspan><tspan x="0" y="3488">A</tspan><tspan class="cls-11" y="3488">)</tspan><tspan y="3488"> </tspan><tspan x="0" y="3529"></tspan><tspan x="0" y="3563">Quality of Life </tspan><tspan class="cls-11" y="3563">&amp;</tspan><tspan y="3563" xml:space="preserve"> Service Delivery Committee </tspan><tspan x="0" y="3604"></tspan><tspan x="0" y="3638" xml:space="preserve">P. Moore  </tspan><tspan x="0" y="3672"></tspan><tspan x="0" y="3706" xml:space="preserve">1.  Proposed 41-43 Beekman Street Shelter - Resolution </tspan><tspan x="0" y="3740"></tspan><tspan x="0" y="3774">Vote was passed by 34 in favor, 2 opposed, 3 abstained and 0 recused </tspan><tspan x="0" y="3808"></tspan><tspan x="0" y="3842" xml:space="preserve">2.  Flea Theatre - Report </tspan><tspan x="0" y="3876" xml:space="preserve">3.  Borough Based Jail deconstruction - Report </tspan><tspan x="0" y="3910" xml:space="preserve">4.  Water Street streetscape improvement project - Report </tspan><tspan x="0" y="3944" xml:space="preserve">5.  Pace University renovation project - Report </tspan><tspan x="0" y="3978"></tspan><tspan x="0" y="4012">B</tspan><tspan class="cls-11" y="4012">)</tspan><tspan y="4012"> </tspan><tspan x="0" y="4053"></tspan><tspan x="0" y="4087">Executive Committee </tspan><tspan x="0" y="4121"></tspan><tspan x="0" y="4155">T. Meltzer </tspan><tspan x="0" y="4189"></tspan><tspan x="0" y="4223" xml:space="preserve">1.  Cannabis applications</tspan><tspan class="cls-11" y="4223">:</tspan><tspan y="4223"> </tspan><tspan class="cls-11"><tspan x="0" y="4264">●</tspan><tspan class="cls-12" y="4264" xml:space="preserve">  386 Canal Street, Biwa Beads LLC </tspan><tspan y="4264">–</tspan><tspan class="cls-12" y="4264" xml:space="preserve"> Resolution </tspan></tspan><tspan x="0" y="4305"></tspan><tspan x="0" y="4339" xml:space="preserve">Vote was passed by 32 in favor, 3 opposed, 4 abstained and 0 recused  </tspan><tspan x="0" y="4373"></tspan><tspan class="cls-11"><tspan x="0" y="4407">●</tspan><tspan class="cls-12" y="4407" xml:space="preserve">  88 Fulton Street, Bud Nation LLC - Resolution </tspan></tspan><tspan x="0" y="4448"></tspan><tspan x="0" y="4482" xml:space="preserve">Vote was passed by 21 in favor, 14 opposed, 2 abstained and 0 recused  </tspan><tspan x="0" y="4516"></tspan><tspan x="0" y="4550"></tspan><tspan class="cls-11"><tspan x="0" y="4584">●</tspan><tspan class="cls-12" y="4584" xml:space="preserve">  310 Canal Street, Omni Urban Crafters LLC </tspan><tspan y="4584">–</tspan><tspan class="cls-12" y="4584" xml:space="preserve"> Resolution </tspan></tspan><tspan x="0" y="4625"></tspan><tspan x="0" y="4659" xml:space="preserve">Vote was passed by 29 in favor, 5 opposed, 4 abstained and 0 recused  </tspan><tspan x="0" y="4693"></tspan><tspan x="0" y="4727" xml:space="preserve">2.  By-Laws Task Force - Report </tspan><tspan x="0" y="4761"></tspan><tspan x="0" y="4795">C</tspan><tspan class="cls-11" y="4795">)</tspan><tspan y="4795" xml:space="preserve">  </tspan><tspan x="0" y="4836"></tspan><tspan x="0" y="4870">Land Use, Zoning </tspan><tspan class="cls-11" y="4870">&amp;</tspan><tspan y="4870" xml:space="preserve"> Economic Development Committee </tspan><tspan x="0" y="4911"></tspan><tspan x="0" y="4945">P. Kennell </tspan><tspan x="0" y="4979"></tspan><tspan x="0" y="5013" xml:space="preserve">1.  25 Water Street </tspan><tspan class="cls-11" y="5013">(</tspan><tspan y="5013">aka 115 Broad Street, 4 New York Plaza</tspan><tspan class="cls-11" y="5013">)</tspan><tspan y="5013"> </tspan><tspan class="cls-11" y="5013">–</tspan><tspan y="5013" xml:space="preserve"> Application for City </tspan><tspan x="0" y="5054"></tspan><tspan x="0" y="5088">Planning Commission </tspan><tspan class="cls-11" y="5088">(</tspan><tspan y="5088">CPC</tspan><tspan class="cls-11" y="5088">)</tspan><tspan y="5088" xml:space="preserve"> Chair Certifications for Creation of an Open Air Caf</tspan><tspan class="cls-11" y="5088">é</tspan><tspan y="5088" xml:space="preserve"> in the </tspan><tspan x="0" y="5129">Existing Privately Owned Public Space </tspan><tspan class="cls-11" y="5129">(</tspan><tspan y="5129">POPS</tspan><tspan class="cls-11" y="5129">)</tspan><tspan y="5129" xml:space="preserve"> Plaza - Resolution </tspan><tspan x="0" y="5170" xml:space="preserve">Vote was passed by 32 in favor, 4 opposed, 2 abstained and 0 recused  </tspan><tspan x="0" y="5204"></tspan><tspan x="0" y="5238" xml:space="preserve">2.  25 Water Street </tspan><tspan class="cls-11" y="5238">(</tspan><tspan y="5238">aka 115 Broad Street, 4 New York Plaza</tspan><tspan class="cls-11" y="5238">)</tspan><tspan y="5238"> </tspan><tspan class="cls-11" y="5238">–</tspan><tspan y="5238" xml:space="preserve"> Application for City </tspan><tspan x="0" y="5279"></tspan><tspan x="0" y="5313">Planning Commission </tspan><tspan class="cls-11" y="5313">(</tspan><tspan y="5313">CPC</tspan><tspan class="cls-11" y="5313">)</tspan><tspan y="5313" xml:space="preserve"> Chair Certifications for </tspan><tspan class="cls-11" y="5313">(</tspan><tspan y="5313">1</tspan><tspan class="cls-11" y="5313">)</tspan><tspan y="5313" xml:space="preserve"> Horizontal Enlargement Within </tspan><tspan x="0" y="5354">an Existing Privately Owned Public Space </tspan><tspan class="cls-11" y="5354">(</tspan><tspan y="5354">POPS</tspan><tspan class="cls-11" y="5354">)</tspan><tspan y="5354" xml:space="preserve"> Arcade and </tspan><tspan class="cls-11" y="5354">(</tspan><tspan y="5354">2</tspan><tspan class="cls-11" y="5354">)</tspan><tspan y="5354" xml:space="preserve"> Design Modifications </tspan><tspan x="0" y="5395" xml:space="preserve">to an Existing POPS Plaza - Resolution  </tspan><tspan x="0" y="5429" xml:space="preserve">Vote was passed by 36 in favor, 1 opposed, 1 abstained and 0 recused  </tspan><tspan x="0" y="5463"></tspan><tspan x="0" y="5497" xml:space="preserve">3.  Public Hearing City of Yes for Economic Opportunity proposal </tspan><tspan class="cls-11" y="5497">(</tspan><tspan y="5497">N240010ZRY and </tspan><tspan x="0" y="5538"></tspan><tspan x="0" y="5572">N240011ZRY</tspan><tspan class="cls-11" y="5572">)</tspan><tspan y="5572" xml:space="preserve"> Zoning Text Amendment - Resolution </tspan><tspan x="0" y="5613"></tspan><tspan x="0" y="5647" xml:space="preserve">1.  Proposal to amend 4 - according to borough board resolution</tspan><tspan class="cls-11" y="5647">???</tspan><tspan y="5647" xml:space="preserve"> - accepted </tspan><tspan x="0" y="5688" xml:space="preserve">2.  Proposal to amend 5 - change to disapprove and require permitting, limit hours, </tspan><tspan x="0" y="5722"></tspan><tspan x="0" y="5756">exclude rooftop use - accepted </tspan><tspan x="0" y="5790"></tspan><tspan x="0" y="5824" xml:space="preserve">3.  Proposal to amend 6 - exclude Gov Island - accepted </tspan><tspan x="0" y="5858" xml:space="preserve">4.  Proposal to amend 8 - exclude life sciences from residential buildings - Coleman, </tspan><tspan x="0" y="5892"></tspan><tspan x="0" y="5926">Galloway opposed, Kennell abstain - accepted </tspan><tspan x="0" y="5960"></tspan><tspan x="0" y="5994" xml:space="preserve">5.  Proposal to amend 10 - indoor amusement facilities should comply with height </tspan><tspan x="0" y="6028"></tspan><tspan x="0" y="6062">and bulk - exclude Gov Island - accepted </tspan><tspan x="0" y="6096"></tspan><tspan x="0" y="6130" xml:space="preserve">6.  Proposal to amend 11 - other borough board resolution items - except for the item </tspan><tspan x="0" y="6164"></tspan><tspan x="0" y="6198">about condo and co-op - accepted </tspan><tspan x="0" y="6232"></tspan><tspan x="0" y="6266" xml:space="preserve">7.  Proposal to amend 15 - require community board review - accepted </tspan><tspan x="0" y="6300"></tspan><tspan x="0" y="6334">Vote was passed by 30 in favor, 0 opposed, 0 abstained and 0 recused </tspan><tspan x="0" y="6368"></tspan><tspan x="0" y="6402">D</tspan><tspan class="cls-11" y="6402">)</tspan><tspan y="6402"> </tspan><tspan x="0" y="6443"></tspan><tspan x="0" y="6477">Transportation </tspan><tspan class="cls-11" y="6477">&amp;</tspan><tspan y="6477" xml:space="preserve"> Street Activity Permits Committee </tspan><tspan x="0" y="6518"></tspan><tspan x="0" y="6552" xml:space="preserve">J. Coleman  </tspan><tspan x="0" y="6586"></tspan><tspan x="0" y="6620" xml:space="preserve">1.  Daylighting corners for pedestrian safety - Resolution </tspan><tspan x="0" y="6654"></tspan><tspan x="0" y="6688" xml:space="preserve">Vote was passed by 26 in favor, 1 opposed, 3 abstained and 0 recused  </tspan><tspan x="0" y="6722"></tspan><tspan x="0" y="6756" xml:space="preserve">2.  Congestion pricing</tspan><tspan class="cls-11" y="6756">:</tspan><tspan y="6756" xml:space="preserve"> release of Traffic Mobility Review Board recommendations on a </tspan><tspan x="0" y="6797"></tspan><tspan x="0" y="6831" xml:space="preserve">tolling structure - Resolution  </tspan><tspan x="0" y="6865">Vote was passed by 23 in favor, 3 opposed, 3 abstained and 1 recused </tspan><tspan x="0" y="6899"></tspan><tspan x="0" y="6933">E</tspan><tspan class="cls-11" y="6933">)</tspan><tspan y="6933"> </tspan><tspan x="0" y="6974"></tspan><tspan x="0" y="7008">Battery Park City Committee </tspan><tspan x="0" y="7042"></tspan><tspan x="0" y="7076">J. Cuccia </tspan><tspan x="0" y="7110"></tspan><tspan x="0" y="7144" xml:space="preserve">1.  Brookfield Ferry Terminal Process for Private Charters, PANYNJ, NY Waterways - </tspan><tspan x="0" y="7178"></tspan><tspan x="0" y="7212">Report </tspan><tspan x="0" y="7246"></tspan><tspan x="0" y="7280" xml:space="preserve">2.  North</tspan><tspan class="cls-11" y="7280">/</tspan><tspan y="7280">West Battery Park City Resiliency Project Post - 30</tspan><tspan class="cls-11" y="7280">%</tspan><tspan y="7280" xml:space="preserve"> Design Update </tspan><tspan class="cls-11" y="7280">–</tspan><tspan y="7280" xml:space="preserve"> Reaches 6 </tspan><tspan x="0" y="7321"></tspan><tspan class="cls-11"><tspan x="0" y="7355">&amp;</tspan><tspan class="cls-12" y="7355" xml:space="preserve"> 7 - Report </tspan></tspan><tspan x="0" y="7396"></tspan><tspan x="0" y="7430" xml:space="preserve">3.  South Battery Park City Construction - Report </tspan><tspan x="0" y="7464" xml:space="preserve">4.  Programming, Construction and Event Updates - Report </tspan><tspan x="0" y="7498" xml:space="preserve">5.  Wagner Park Task Force Updates - Report  </tspan><tspan x="0" y="7532"></tspan><tspan x="0" y="7566"> </tspan><tspan x="0" y="7600"> </tspan><tspan x="0" y="7634">F</tspan><tspan class="cls-11" y="7634">)</tspan><tspan y="7634"> </tspan><tspan x="0" y="7675"></tspan><tspan x="0" y="7709">Licensing </tspan><tspan class="cls-11" y="7709">&amp;</tspan><tspan y="7709" xml:space="preserve"> Permits Committee </tspan><tspan x="0" y="7750"></tspan><tspan x="0" y="7784">S. Cole </tspan><tspan x="0" y="7818"></tspan><tspan x="0" y="7852">Tribeca area </tspan><tspan x="0" y="7886"></tspan><tspan x="0" y="7920" xml:space="preserve">1.  253 Church Street, TK Tribeca LLC dba Tara Kitchen, application for a class change on </tspan><tspan x="0" y="7954"></tspan><tspan x="0" y="7988">a full liquor license - Resolution </tspan><tspan x="0" y="8022">Vote was passed by 30 in favor, 0 opposed, 0 abstained and 0 recused </tspan><tspan x="0" y="8056"></tspan><tspan x="0" y="8090">Financial District area </tspan><tspan x="0" y="8124"></tspan><tspan x="0" y="8158" xml:space="preserve">1.  17 Battery Place, Terravita Battery Park LLC dba Terravita, new application and </tspan><tspan x="0" y="8192"></tspan><tspan x="0" y="8226" xml:space="preserve">temporary retail permit for full liquor license - Resolution  </tspan><tspan x="0" y="8260">Vote was passed by 30 in favor, 0 opposed, 0 abstained and 0 recused </tspan><tspan x="0" y="8294"></tspan><tspan x="0" y="8328">G</tspan><tspan class="cls-11" y="8328">)</tspan><tspan y="8328"> </tspan><tspan x="0" y="8369"></tspan><tspan x="0" y="8403">Youth </tspan><tspan class="cls-11" y="8403">&amp;</tspan><tspan y="8403" xml:space="preserve"> Education Committee </tspan><tspan x="0" y="8444"></tspan><tspan x="0" y="8478">T. Joyce </tspan><tspan x="0" y="8512"></tspan><tspan x="0" y="8546" xml:space="preserve">1.  Enrollment numbers 2023-2024 - District 2 - Report </tspan><tspan x="0" y="8580" xml:space="preserve">2.  Harbor School Lease and New Campus Plan Updates - Report  </tspan><tspan x="0" y="8614"></tspan><tspan x="0" y="8648">H</tspan><tspan class="cls-11" y="8648">)</tspan><tspan y="8648"> </tspan><tspan x="0" y="8689"></tspan><tspan x="0" y="8723">Landmarks </tspan><tspan class="cls-11" y="8723">&amp;</tspan><tspan y="8723" xml:space="preserve"> Preservation Committee </tspan><tspan x="0" y="8764"></tspan><tspan x="0" y="8798" xml:space="preserve">J. Friedman  </tspan><tspan x="0" y="8832"></tspan><tspan x="0" y="8866" xml:space="preserve">1.  Docket number LPC-24-01920</tspan><tspan class="cls-11" y="8866">;</tspan><tspan y="8866" xml:space="preserve"> 315 Greenwich Street, face repairs and maintenance, </tspan><tspan x="0" y="8907"></tspan><tspan x="0" y="8941">additional new glass fiber reinforced plastic, addition of stair and stair bulkhead on the </tspan><tspan x="0" y="8975">roof, removal of existing non-historic storefront</tspan><tspan class="cls-11" y="8975">;</tspan><tspan y="8975" xml:space="preserve"> removal of fire escape landings - </tspan><tspan x="0" y="9016" xml:space="preserve">Resolution  </tspan><tspan x="0" y="9050">Vote was passed by 30 in favor, 0 opposed, 0 abstained and 0 recused </tspan><tspan x="0" y="9084"></tspan><tspan x="0" y="9118" xml:space="preserve">2.  Docket number LPC-24-05823</tspan><tspan class="cls-11" y="9118">;</tspan><tspan y="9118" xml:space="preserve"> 77 Hudson Street removal of vault lights - Resolution  </tspan><tspan x="0" y="9159"></tspan><tspan x="0" y="9193">Vote was passed by 30 in favor, 0 opposed, 0 abstained and 0 recused </tspan><tspan x="0" y="9227"></tspan><tspan x="0" y="9261" xml:space="preserve">3.  Docket number LPC-24-05844</tspan><tspan class="cls-11" y="9261">;</tspan><tspan y="9261" xml:space="preserve"> Governor Island, Installation of ADA ramps at buildings </tspan><tspan x="0" y="9302">111 and 114, Governors Island and installation of light poles adjacent to Buildings 111, </tspan><tspan x="0" y="9336" xml:space="preserve">112 and 114 - Resolution  </tspan><tspan x="0" y="9370">Vote was passed by 28 in favor, 1 opposed, 1 abstained and 0 recused </tspan><tspan x="0" y="9404"></tspan><tspan x="0" y="9438" xml:space="preserve">4.  Docket number LPC -22-09644, 83 Chambers Street aka 65 Reade Street </tspan><tspan x="0" y="9472"></tspan><tspan x="0" y="9506">Docket number LPC- 22-09645, 85 Chambers Street aka 67 Reade Street - Tribeca South </tspan><tspan x="0" y="9540">Historic District, Manhattan Block 149, Lot 6 - Interior demo and modifications to create </tspan><tspan class="cls-11"><tspan x="0" y="9574">(</tspan><tspan class="cls-12" y="9574">2</tspan><tspan y="9574">)</tspan><tspan class="cls-12" y="9574" xml:space="preserve"> commercial units and </tspan><tspan y="9574">(</tspan><tspan class="cls-12" y="9574">8</tspan><tspan y="9574">)</tspan><tspan class="cls-12" y="9574" xml:space="preserve"> residential units</tspan><tspan y="9574">;</tspan><tspan class="cls-12" y="9574" xml:space="preserve"> NO building extension or addition of floors </tspan></tspan><tspan x="0" y="9615">to the bulk of the building</tspan><tspan class="cls-11" y="9615">;</tspan><tspan y="9615" xml:space="preserve"> Replacement of storefront </tspan><tspan class="cls-11" y="9615">(</tspan><tspan y="9615">s</tspan><tspan class="cls-11" y="9615">)</tspan><tspan y="9615" xml:space="preserve"> and upper floor windows</tspan><tspan class="cls-11" y="9615">;</tspan><tspan y="9615" xml:space="preserve"> Clean </tspan><tspan x="0" y="9656">and repair street facing facades</tspan><tspan class="cls-11" y="9656">;</tspan><tspan y="9656" xml:space="preserve"> Removal of exterior fire escape - Resolution </tspan><tspan x="0" y="9697">Vote was passed by 28 in favor, 2 opposed, 0 abstained and 0 recused </tspan><tspan x="0" y="9731"></tspan><tspan x="0" y="9765">I</tspan><tspan class="cls-11" y="9765">)</tspan><tspan y="9765"> </tspan><tspan x="0" y="9806"></tspan><tspan x="0" y="9840">Waterfront, Parks </tspan><tspan class="cls-11" y="9840">&amp;</tspan><tspan y="9840" xml:space="preserve"> Cultural Committee  </tspan><tspan x="0" y="9881"></tspan><tspan x="0" y="9915">A. Zelter </tspan><tspan x="0" y="9949"></tspan><tspan x="0" y="9983" xml:space="preserve">1.  Plus Pool, floating pool test run this summer - Resolution </tspan><tspan x="0" y="10017"></tspan><tspan x="0" y="10051">Vote was passed by 29 in favor, 1 opposed, 0 abstained and 2 recused </tspan><tspan x="0" y="10085"></tspan><tspan x="0" y="10119">New Business </tspan><tspan x="0" y="10153"></tspan><tspan x="0" y="10187">Old Business </tspan><tspan x="0" y="10221"></tspan><tspan x="0" y="10255">Adjournment </tspan><tspan x="0" y="10289"></tspan><tspan x="0" y="10323" xml:space="preserve"> All documents relating to the above agenda items are on file at the Community Board 1 </tspan><tspan x="0" y="10357"></tspan><tspan x="0" y="10391">office and are available for viewing by the public upon written request to </tspan><tspan x="0" y="10425">man01</tspan><tspan class="cls-11" y="10425">@</tspan><tspan y="10425">cb.nyc.gov </tspan><tspan x="0" y="10466"></tspan><tspan x="0" y="10500">At all meetings, additional items may be raised as </tspan><tspan class="cls-11" y="10500">&quot;</tspan><tspan y="10500">New Business</tspan><tspan class="cls-11" y="10500">&quot;</tspan><tspan y="10500"> </tspan><tspan x="0" y="10541"></tspan></text>
    <text id="manhattan_community_board_1_" data-name="manhattan community board 1 " class="cls-8" transform="translate(116 317)"><tspan x="0" y="28">manhattan </tspan><tspan x="0" y="62">community </tspan><tspan x="0" y="96">board 1 </tspan></text>
    <text id="January_2024_" data-name="January 2024 " class="cls-13" transform="translate(442 218)"><tspan x="0" y="37">January 2024 </tspan></text>
    <g id="Group_4" data-name="Group 4" transform="translate(54.176 43.092)">
      <g id="Rectangle_11" data-name="Rectangle 11" class="cls-14" transform="translate(1729.824 943.908)">
        <rect class="cls-16" width="56" height="56"/>
        <rect class="cls-1" x="0.5" y="0.5" width="55" height="55"/>
      </g>
      <path id="Path_23" data-name="Path 23" class="cls-15" d="M18.838,0,0,18.838,18.838,37.676" transform="translate(1776.688 962.303) rotate(90)"/>
    </g>
  </g>
</svg>
